<svg width="1442" height="634" viewBox="0 0 1442 634" fill="none" xmlns="http://www.w3.org/2000/svg">
<rect width="1442" height="634" fill="white"/>
<path d="M160 323C160 415 236 491 328 491C420 491 496 415 496 323C496 231 420 156 328 156C236 156 160 231 160 323ZM390 401C351 377 301 371 243 384C229 386 227 366 239 364C303 349 357 356 401 383C412 390 401 407 390 401ZM407 356C362 328 293 320 240 336C223 341 217 315 233 311C294 293 369 302 421 334C435 343 421 365 407 356ZM232 285C215 291 204 262 223 255C282 237 382 240 444 277C461 286 445 314 427 304C373 272 283 269 232 285ZM611 376C594 376 578 370 564 356C563 356 563 357 563 357L547 376C546 377 546 378 547 379C565 395 587 403 611 403C645 403 666 384 666 356C666 332 651 319 616 310C587 303 582 298 582 288C582 278 592 272 605 272C618 272 630 277 644 287C644 287 645 288 646 288C647 288 647 287 647 287L661 267C662 266 662 266 661 265C645 252 626 245 605 245C574 245 552 264 552 291C552 320 572 329 604 337C632 343 636 349 636 359C636 370 626 376 611 376ZM706 299V286C706 285 705 284 704 284H678C677 284 676 285 676 286V433C676 434 677 435 678 435H704C705 435 706 434 706 433V387C716 398 727 403 742 403C769 403 796 382 796 342C796 302 769 282 742 282C727 282 716 287 706 299ZM736 377C718 377 705 362 705 342C705 322 718 308 736 308C754 308 766 322 766 342C766 362 754 377 736 377ZM804 343C804 377 831 403 866 403C901 403 928 376 928 342C928 308 902 282 867 282C832 282 804 309 804 343ZM834 342C834 322 847 308 866 308C885 308 899 323 899 343C899 363 886 377 867 377C848 377 834 362 834 342ZM974 284V255C974 254 974 253 973 253H947C946 253 945 254 945 255V284H932C931 284 930 285 930 286V308C930 309 931 310 932 310H945V368C945 391 956 403 979 403C988 403 997 401 1004 397C1005 397 1005 396 1005 395V374C1005 373 1005 372 1004 372H1002C997 375 991 376 986 376C978 376 974 372 974 364V310H1004C1005 310 1006 309 1006 308V286C1006 285 1005 284 1004 284H974ZM1103 281C1103 270 1107 266 1116 266C1121 266 1126 266 1131 268H1132C1132 268 1133 267 1133 266V245C1133 244 1133 243 1132 243C1127 241 1120 240 1110 240C1086 240 1074 254 1074 279V284H1061C1060 284 1059 285 1059 286V308C1059 309 1060 310 1061 310H1074V399C1074 400 1075 401 1076 401H1102C1103 401 1103 400 1103 399V310H1128L1165 399C1161 408 1157 410 1151 410C1146 410 1141 409 1136 406H1135L1134 407L1125 426C1125 427 1125 429 1126 429C1135 434 1143 436 1153 436C1172 436 1183 427 1192 403L1237 287V285C1237 284 1236 284 1235 284H1208C1207 284 1207 285 1207 286L1179 364L1149 286C1149 285 1148 284 1147 284H1103V281ZM1020 284C1019 284 1018 285 1018 286V399C1018 400 1019 401 1020 401H1046C1047 401 1047 400 1047 399V286C1047 285 1047 284 1046 284H1020ZM1014 251C1014 261 1023 270 1033 270C1043 270 1051 261 1051 251C1051 241 1043 233 1033 233C1023 233 1014 241 1014 251ZM1259 320C1269 320 1278 312 1278 302C1278 292 1269 284 1259 284C1249 284 1241 292 1241 302C1241 312 1249 320 1259 320ZM1259 286C1268 286 1276 293 1276 302C1276 311 1268 318 1259 318C1250 318 1243 311 1243 302C1243 293 1250 286 1259 286ZM1263 304C1266 303 1268 301 1268 298C1268 294 1264 292 1260 292H1252V311H1256V305H1260L1264 311H1269L1263 304ZM1260 295C1262 295 1264 296 1264 298C1264 300 1262 301 1260 301H1256V295H1260Z" fill="black"/>
</svg>
